<?xml version="1.0" standalone="no"?><!DOCTYPE svg PUBLIC "-//W3C//DTD SVG 1.1//EN" "http://www.w3.org/Graphics/SVG/1.1/DTD/svg11.dtd"><svg t="1694481323827" class="icon" viewBox="0 0 1024 1024" version="1.1" xmlns="http://www.w3.org/2000/svg" p-id="1455" xmlns:xlink="http://www.w3.org/1999/xlink" width="200" height="200"><path d="M716.018 332.909H247.512c-50.729 0-92 41.271-92 92v321.54c0 50.729 41.271 92 92 92h468.506c50.729 0 92-41.271 92-92v-321.54c0-50.729-41.272-92-92-92z m36 413.54c0 19.851-16.149 36-36 36H247.512c-19.851 0-36-16.149-36-36v-321.54c0-19.851 16.149-36 36-36h468.506c19.851 0 36 16.149 36 36v321.54z" p-id="1456"></path><path d="M748.373 231.47H291.868c-15.464 0-28 12.536-28 28s12.536 28 28 28h456.505c61.757 0 112 50.243 112 112v309.54c0 15.464 12.536 28 28 28s28-12.536 28-28V399.47c0-92.636-75.364-168-168-168z" p-id="1457"></path></svg>