<?xml version="1.0" standalone="no"?><!DOCTYPE svg PUBLIC "-//W3C//DTD SVG 1.1//EN" "http://www.w3.org/Graphics/SVG/1.1/DTD/svg11.dtd"><svg t="1694481852771" class="icon" viewBox="0 0 1024 1024" version="1.1" xmlns="http://www.w3.org/2000/svg" p-id="5798" xmlns:xlink="http://www.w3.org/1999/xlink" width="200" height="200"><path d="M896 170.667A85.333 85.333 0 0 1 981.333 256v597.333A85.333 85.333 0 0 1 896 938.667H128a85.333 85.333 0 0 1-85.333-85.334V426.667a256 256 0 0 1 256-256H896z m0 64H298.667A192 192 0 0 0 106.88 417.62l-0.213 9.046v426.666a21.333 21.333 0 0 0 17.493 20.992l3.84 0.342h768a21.333 21.333 0 0 0 20.992-17.494l0.341-3.84V256a21.333 21.333 0 0 0-17.493-20.992l-3.84-0.341zM512 341.333A213.333 213.333 0 1 1 512 768a213.333 213.333 0 0 1 0-426.667z m0 64A149.333 149.333 0 1 0 512 704a149.333 149.333 0 0 0 0-298.667zM593.664 64h314.112a12.8 12.8 0 0 1 9.045 21.845L887.168 115.5A42.667 42.667 0 0 1 857.003 128H542.89a12.8 12.8 0 0 1-9.046-21.845L563.5 76.5A42.667 42.667 0 0 1 593.664 64z" p-id="5799"></path></svg>