<?xml version="1.0" standalone="no"?><!DOCTYPE svg PUBLIC "-//W3C//DTD SVG 1.1//EN" "http://www.w3.org/Graphics/SVG/1.1/DTD/svg11.dtd"><svg t="1694481502803" class="icon" viewBox="0 0 1024 1024" version="1.1" xmlns="http://www.w3.org/2000/svg" p-id="4031" xmlns:xlink="http://www.w3.org/1999/xlink" width="200" height="200"><path d="M85.344 106.656H256v170.656H85.344V106.656zM85.344 448H256v170.656H85.344V448zM256 277.344h170.656V448H256V277.344zM426.656 106.656h170.656v170.656h-170.656V106.656zM426.656 448h170.656v170.656h-170.656V448zM597.344 277.344H768V448h-170.656V277.344zM597.344 768h-170.656v-149.344H256.032V768H85.376v170.656h170.656v-149.344h170.656v149.344h170.656v-149.344H768v149.344h170.656V768H768v-149.344h-170.656zM768 106.656h170.656v170.656H768V106.656zM768 448h170.656v170.656H768V448z" p-id="4032"></path></svg>