<?xml version="1.0" standalone="no"?><!DOCTYPE svg PUBLIC "-//W3C//DTD SVG 1.1//EN" "http://www.w3.org/Graphics/SVG/1.1/DTD/svg11.dtd"><svg t="1698493991284" class="icon" viewBox="0 0 1024 1024" version="1.1" xmlns="http://www.w3.org/2000/svg" p-id="7302" xmlns:xlink="http://www.w3.org/1999/xlink" width="200" height="200"><path d="M512 0v472.615385h295.384615V295.384615A295.384615 295.384615 0 0 0 512 0z" fill="#8a8a8a" opacity=".4" p-id="7303"></path><path d="M512 30.011077A265.373538 265.373538 0 0 1 777.373538 295.384615v433.23077a265.373538 265.373538 0 1 1-530.747076 0v-433.23077A265.373538 265.373538 0 0 1 512 30.011077zM512 0a295.384615 295.384615 0 0 0-295.384615 295.384615v433.23077a295.384615 295.384615 0 0 0 590.76923 0v-433.23077A295.384615 295.384615 0 0 0 512 0z m0 196.923077a27.569231 27.569231 0 0 0-27.569231 27.569231v102.4a27.569231 27.569231 0 0 0 55.138462 0V224.492308A27.569231 27.569231 0 0 0 512 196.923077z" fill="#8a8a8a" p-id="7304"></path></svg>