<?xml version="1.0" standalone="no"?><!DOCTYPE svg PUBLIC "-//W3C//DTD SVG 1.1//EN" "http://www.w3.org/Graphics/SVG/1.1/DTD/svg11.dtd"><svg t="1698493882204" class="icon" viewBox="0 0 1024 1024" version="1.1" xmlns="http://www.w3.org/2000/svg" p-id="2486" xmlns:xlink="http://www.w3.org/1999/xlink" width="200" height="200"><path d="M138.253603 443.125v266.375c0 173.75 149.375 314.5 333.75 314.5s333.75-140.75 333.75-314.375V443.125c-99.875 63.125-215.625 96.5-333.75 96.125-118.125 0.375-233.875-33-333.75-96.125z m0 0" fill="#DDDDDD" p-id="2487"></path><path d="M499.753603 453.5c62-13.375 106.25-68.125 106.25-131.625V193.125c0-64.625-45.5-118.625-106.25-131.625v-61.5C671.003603 13.375 805.628603 148.375 805.628603 313.125v53.75c-87.25 69.75-194.375 110.125-305.875 115.375v-28.75z m-55.625 0.125v28.5C332.628603 477 225.503603 436.625 138.253603 366.875v-53.75C138.253603 148.375 272.878603 13.5 444.128603 0v61.25c-62.5 13-107.375 68-107.375 131.875v128.75c0 65 46.125 119.25 107.375 131.875v-0.125z m0 0" fill="#DDDDDD" p-id="2488"></path><path d="M471.378603 87.75c70.125 0 105.25 35.125 105.25 105.375v128.75c0 70.25-35.125 105.375-105.375 105.375h0.125c-70.25 0-105.375-35.125-105.375-105.375V193.125c0.125-70.25 35.25-105.375 105.375-105.375z m0 0" fill="#3A90FF" p-id="2489"></path></svg>