<?xml version="1.0" standalone="no"?><!DOCTYPE svg PUBLIC "-//W3C//DTD SVG 1.1//EN" "http://www.w3.org/Graphics/SVG/1.1/DTD/svg11.dtd"><svg t="1698493853330" class="icon" viewBox="0 0 1024 1024" version="1.1" xmlns="http://www.w3.org/2000/svg" p-id="1491" xmlns:xlink="http://www.w3.org/1999/xlink" width="200" height="200"><path d="M404.468275 398.231609V307.210752a92.727498 92.727498 0 0 1 80.781011-91.589737V0.01536H404.468275A266.804887 266.804887 0 0 0 134.818987 263.975845v64.85236c5.688804 0 5.688804 5.119923 10.808726 5.119924A901.106483 901.106483 0 0 0 404.468275 398.231609z m215.605655-398.216249H539.29292v215.605655A97.847421 97.847421 0 0 1 620.07393 307.210752v86.469814a788.468173 788.468173 0 0 0 269.080408-70.541164v-53.474754A266.804887 266.804887 0 0 0 625.193853 0.01536z m-5.688803 474.446216A86.469814 86.469814 0 0 1 533.035236 568.895715h-31.8573a91.589737 91.589737 0 0 1-91.589738-93.296378V455.119644A1003.504947 1003.504947 0 0 1 139.93891 387.991762v274.769212A353.843581 353.843581 0 0 0 485.249286 1024h37.546103a361.239026 361.239026 0 0 0 361.239026-361.239026V387.991762A998.385024 998.385024 0 0 1 614.385127 455.119644v21.617454zM431.205652 307.210752v161.562021a65.421241 65.421241 0 0 0 64.852361 64.85236h26.737376A65.421241 65.421241 0 0 0 589.923271 468.772773V307.210752a65.990121 65.990121 0 0 0-67.127882-64.852361h-26.737376A69.972284 69.972284 0 0 0 431.205652 307.210752z" fill="#C0C4CC" p-id="1492"></path><path d="M404.468275 398.231609V307.210752a92.727498 92.727498 0 0 1 80.781011-91.589737V0.01536H404.468275A266.804887 266.804887 0 0 0 134.818987 263.975845v64.85236c5.688804 0 5.688804 5.119923 10.808726 5.119924A901.106483 901.106483 0 0 0 404.468275 398.231609z" fill="#3F79F1" p-id="1493"></path></svg>